<svg width="18" height="19" viewBox="0 0 18 19" fill="none" xmlns="http://www.w3.org/2000/svg">
<path fill-rule="evenodd" clip-rule="evenodd" d="M8.2441 3.21503L3.16105 7.57121C3.0804 7.63937 3.01558 7.72429 2.97113 7.82008C2.92668 7.91587 2.90367 8.0202 2.9037 8.1258V14.6593C2.9037 14.8518 2.98018 15.0365 3.11631 15.1726C3.25245 15.3088 3.43709 15.3852 3.62962 15.3852H5.8074V10.3038C5.8074 9.91872 5.96036 9.54944 6.23264 9.27716C6.50491 9.00489 6.8742 8.85192 7.25925 8.85192H10.163C10.548 8.85192 10.9173 9.00489 11.1896 9.27716C11.4618 9.54944 11.6148 9.91872 11.6148 10.3038V15.3852H13.7926C13.9851 15.3852 14.1698 15.3088 14.3059 15.1726C14.442 15.0365 14.5185 14.8518 14.5185 14.6593V8.12597C14.5185 8.02037 14.4955 7.91587 14.4511 7.82008C14.4066 7.72429 14.3418 7.63935 14.2612 7.57119L14.2574 7.56797L9.17969 3.21636C9.17916 3.21592 9.17863 3.21547 9.1781 3.21503C9.04733 3.10514 8.88196 3.04487 8.7111 3.04487C8.54024 3.04487 8.37487 3.10514 8.2441 3.21503ZM10.883 16.8371C10.8849 16.8371 10.8869 16.8371 10.8889 16.8371C10.8909 16.8371 10.8928 16.8371 10.8948 16.8371H13.7926C14.3702 16.8371 14.9241 16.6076 15.3325 16.1992C15.7409 15.7908 15.9704 15.2369 15.9704 14.6593V8.12615C15.9704 8.12609 15.9704 8.12621 15.9704 8.12615C15.9704 7.80941 15.9014 7.49631 15.7681 7.20899C15.6351 6.92245 15.4414 6.66826 15.2004 6.46407C15.1997 6.46349 15.199 6.46291 15.1983 6.46233L10.1207 2.11073L10.1169 2.1075C9.72379 1.77528 9.22576 1.59302 8.7111 1.59302C8.19645 1.59302 7.69842 1.77528 7.30535 2.1075L2.22175 6.46411C1.98078 6.6683 1.7871 6.92247 1.65415 7.20899C1.52083 7.49631 1.45179 7.80924 1.45184 8.12597C1.45184 8.12591 1.45184 8.12603 1.45184 8.12597V14.6593C1.45184 15.2369 1.68129 15.7908 2.0897 16.1992C2.49811 16.6076 3.05204 16.8371 3.62962 16.8371H6.52742C6.52939 16.8371 6.53135 16.8371 6.53333 16.8371C6.5353 16.8371 6.53727 16.8371 6.53923 16.8371H10.883ZM10.163 15.3852V10.3038H7.25925V15.3852H10.163Z" fill="#3F3F46"/>
</svg>
