<svg width="18" height="19" viewBox="0 0 18 19" fill="none" xmlns="http://www.w3.org/2000/svg">
<path fill-rule="evenodd" clip-rule="evenodd" d="M8.77554 3.1904C9.05903 2.90691 9.51866 2.90691 9.80215 3.1904L13.4318 6.82003C13.7153 7.10352 13.7153 7.56315 13.4318 7.84665C13.1483 8.13014 12.6887 8.13014 12.4052 7.84665L9.28884 4.73032L6.17252 7.84665C5.88903 8.13014 5.4294 8.13014 5.14591 7.84665C4.86242 7.56315 4.86242 7.10352 5.14591 6.82003L8.77554 3.1904ZM5.14591 11.1756C5.4294 10.8921 5.88903 10.8921 6.17252 11.1756L9.28884 14.2919L12.4052 11.1756C12.6887 10.8921 13.1483 10.8921 13.4318 11.1756C13.7153 11.4591 13.7153 11.9187 13.4318 12.2022L9.80215 15.8318C9.51866 16.1153 9.05903 16.1153 8.77554 15.8318L5.14591 12.2022C4.86242 11.9187 4.86242 11.4591 5.14591 11.1756Z" fill="#3F3F46"/>
</svg>
