<svg width="18" height="18" viewBox="0 0 18 18" fill="none" xmlns="http://www.w3.org/2000/svg">
<g clip-path="url(#clip0_35_934)">
<path fill-rule="evenodd" clip-rule="evenodd" d="M2.90373 2.24433C2.50613 2.24433 2.1778 2.57266 2.1778 2.97026V5.87396C2.1778 6.27156 2.50613 6.59989 2.90373 6.59989C3.30465 6.59989 3.62966 6.9249 3.62966 7.32581C3.62966 7.72673 3.30465 8.05174 2.90373 8.05174C1.70429 8.05174 0.725952 7.0734 0.725952 5.87396V2.97026C0.725952 1.77082 1.70429 0.79248 2.90373 0.79248H5.80743C7.00687 0.79248 7.98521 1.77082 7.98521 2.97026C7.98521 3.37118 7.6602 3.69618 7.25928 3.69618C6.85837 3.69618 6.53336 3.37118 6.53336 2.97026C6.53336 2.57266 6.20503 2.24433 5.80743 2.24433H2.90373ZM7.25928 6.59989C6.86168 6.59989 6.53336 6.92821 6.53336 7.32581V10.2295C6.53336 10.6271 6.86168 10.9554 7.25928 10.9554C7.6602 10.9554 7.98521 11.2804 7.98521 11.6814C7.98521 12.0823 7.6602 12.4073 7.25928 12.4073C6.05985 12.4073 5.08151 11.429 5.08151 10.2295V7.32581C5.08151 6.12638 6.05985 5.14804 7.25928 5.14804H10.163C11.3624 5.14804 12.3408 6.12638 12.3408 7.32581C12.3408 7.72673 12.0158 8.05174 11.6148 8.05174C11.2139 8.05174 10.8889 7.72673 10.8889 7.32581C10.8889 6.92821 10.5606 6.59989 10.163 6.59989H7.25928ZM11.6148 10.9554C11.2139 10.9554 10.8889 11.2804 10.8889 11.6814V14.5851C10.8889 14.986 11.2139 15.311 11.6148 15.311H14.5185C14.9195 15.311 15.2445 14.986 15.2445 14.5851V11.6814C15.2445 11.2804 14.9195 10.9554 14.5185 10.9554H11.6148ZM9.43706 11.6814C9.43706 10.4786 10.4121 9.50359 11.6148 9.50359H14.5185C15.7213 9.50359 16.6963 10.4786 16.6963 11.6814V14.5851C16.6963 15.7878 15.7213 16.7628 14.5185 16.7628H11.6148C10.4121 16.7628 9.43706 15.7878 9.43706 14.5851V11.6814Z" fill="#3F3F46"/>
</g>
<defs>
<clipPath id="clip0_35_934">
<rect width="17.4222" height="17.4222" fill="white" transform="translate(0 0.0666504)"/>
</clipPath>
</defs>
</svg>
