<svg width="21" height="20" viewBox="0 0 21 20" fill="none" xmlns="http://www.w3.org/2000/svg">
<path fill-rule="evenodd" clip-rule="evenodd" d="M9.70828 3.33117C6.48861 3.33117 3.87854 5.94123 3.87854 9.1609C3.87854 12.3806 6.48861 14.9906 9.70828 14.9906C12.928 14.9906 15.538 12.3806 15.538 9.1609C15.538 5.94123 12.928 3.33117 9.70828 3.33117ZM2.21291 9.1609C2.21291 5.02132 5.5687 1.66553 9.70828 1.66553C13.8479 1.66553 17.2037 5.02132 17.2037 9.1609C17.2037 10.9307 16.5903 12.5572 15.5646 13.8394L18.6253 16.9002C18.9506 17.2254 18.9506 17.7527 18.6253 18.0779C18.3001 18.4032 17.7728 18.4032 17.4475 18.0779L14.3868 15.0172C13.1045 16.0429 11.478 16.6563 9.70828 16.6563C5.5687 16.6563 2.21291 13.3005 2.21291 9.1609Z" fill="#71717A"/>
</svg>
