<svg width="18" height="18" viewBox="0 0 18 18" fill="none" xmlns="http://www.w3.org/2000/svg">
<path fill-rule="evenodd" clip-rule="evenodd" d="M2.17777 1.4519C2.57869 1.4519 2.9037 1.77691 2.9037 2.17783V13.7926C2.9037 13.9852 2.98018 14.1698 3.11631 14.306C3.25245 14.4421 3.43709 14.5186 3.62962 14.5186H15.2444C15.6454 14.5186 15.9704 14.8436 15.9704 15.2445C15.9704 15.6454 15.6454 15.9704 15.2444 15.9704H3.62962C3.05204 15.9704 2.49811 15.741 2.0897 15.3326C1.68129 14.9242 1.45184 14.3702 1.45184 13.7926V2.17783C1.45184 1.77691 1.77685 1.4519 2.17777 1.4519ZM14.6946 2.92543C15.0835 3.02267 15.32 3.4168 15.2228 3.80575C15.027 4.58881 14.5495 5.92463 13.8752 7.08064C13.538 7.65864 13.132 8.22591 12.6604 8.6571C12.1922 9.08516 11.5938 9.43709 10.8889 9.43709C9.76759 9.43709 9.20171 8.58195 8.87552 8.08902C8.86088 8.06689 8.84672 8.0455 8.83302 8.02495C8.42611 7.41458 8.26541 7.25931 7.98518 7.25931C7.80156 7.25931 7.597 7.34341 7.35479 7.61067C7.10575 7.88548 6.87171 8.2983 6.65897 8.80888C6.29912 9.67252 6.06068 10.6583 5.88052 11.403C5.84704 11.5414 5.81558 11.6715 5.78572 11.7909C5.68849 12.1799 5.29436 12.4164 4.90541 12.3191C4.51646 12.2219 4.27998 11.8278 4.37722 11.4388C4.40298 11.3358 4.43132 11.2182 4.4625 11.0887C4.64011 10.3516 4.9099 9.23183 5.31879 8.25048C5.55976 7.67217 5.87016 7.08685 6.27899 6.63573C6.69465 6.17706 7.26138 5.80746 7.98518 5.80746C9.10647 5.80746 9.67235 6.6626 9.99854 7.15553C10.0132 7.17766 10.0273 7.19905 10.041 7.2196C10.4479 7.82997 10.6086 7.98524 10.8889 7.98524C11.0913 7.98524 11.355 7.88347 11.6808 7.58559C12.0031 7.29086 12.3231 6.85999 12.6211 6.34909C13.2171 5.32732 13.6471 4.12241 13.8143 3.45362C13.9115 3.06467 14.3056 2.82819 14.6946 2.92543Z" fill="#3F3F46"/>
</svg>
