<svg width="22" height="23" viewBox="0 0 22 23" fill="none" xmlns="http://www.w3.org/2000/svg">
<path fill-rule="evenodd" clip-rule="evenodd" d="M8.25324 4.52507C6.77241 4.52507 5.57196 5.72552 5.57196 7.20634C5.57196 8.68717 6.77241 9.88762 8.25324 9.88762C9.73406 9.88762 10.9345 8.68717 10.9345 7.20634C10.9345 5.72552 9.73407 4.52507 8.25324 4.52507ZM3.78444 7.20634C3.78444 4.7383 5.78519 2.73755 8.25324 2.73755C10.7213 2.73755 12.722 4.7383 12.722 7.20634C12.722 9.67439 10.7213 11.6751 8.25324 11.6751C5.78519 11.6751 3.78444 9.67439 3.78444 7.20634ZM13.6437 3.5257C13.7662 3.04752 14.2531 2.75913 14.7312 2.88156C15.6925 3.12768 16.5445 3.68673 17.1529 4.47057C17.7613 5.2544 18.0916 6.21845 18.0916 7.21071C18.0916 8.20297 17.7613 9.16701 17.1529 9.95085C16.5445 10.7347 15.6925 11.2937 14.7312 11.5399C14.2531 11.6623 13.7662 11.3739 13.6437 10.8957C13.5213 10.4175 13.8097 9.93063 14.2879 9.8082C14.8646 9.66052 15.3758 9.3251 15.7409 8.85479C16.1059 8.38449 16.3041 7.80607 16.3041 7.21071C16.3041 6.61535 16.1059 6.03693 15.7409 5.56662C15.3758 5.09632 14.8646 4.76089 14.2879 4.61322C13.8097 4.49079 13.5213 4.00389 13.6437 3.5257ZM2.41204 14.7715C3.25011 13.9335 4.38676 13.4627 5.57196 13.4627H10.9345C12.1197 13.4627 13.2564 13.9335 14.0944 14.7715C14.9325 15.6096 15.4033 16.7463 15.4033 17.9315V19.719C15.4033 20.2126 15.0032 20.6127 14.5095 20.6127C14.0159 20.6127 13.6158 20.2126 13.6158 19.719V17.9315C13.6158 17.2203 13.3333 16.5383 12.8305 16.0355C12.3276 15.5327 11.6456 15.2502 10.9345 15.2502H5.57196C4.86084 15.2502 4.17885 15.5327 3.67601 16.0355C3.17317 16.5383 2.89068 17.2203 2.89068 17.9315V19.719C2.89068 20.2126 2.49053 20.6127 1.99692 20.6127C1.50331 20.6127 1.10316 20.2126 1.10316 19.719V17.9315C1.10316 16.7463 1.57398 15.6096 2.41204 14.7715ZM16.3254 14.2491C16.4488 13.7711 16.9363 13.4837 17.4143 13.6071C18.373 13.8547 19.2223 14.4136 19.8289 15.1961C20.4356 15.9787 20.7651 16.9405 20.7659 17.9307V19.7189C20.7659 20.2125 20.3657 20.6126 19.8721 20.6126C19.3785 20.6126 18.9783 20.2125 18.9783 19.7189V17.932C18.9779 17.3379 18.7802 16.7608 18.4162 16.2913C18.0522 15.8218 17.5426 15.4864 16.9674 15.3379C16.4895 15.2145 16.202 14.727 16.3254 14.2491Z" fill="#71717A"/>
</svg>
