<svg width="18" height="19" viewBox="0 0 18 19" fill="none" xmlns="http://www.w3.org/2000/svg">
<path fill-rule="evenodd" clip-rule="evenodd" d="M6.53336 3.83711C5.33061 3.83711 4.35558 4.81213 4.35558 6.01488C4.35558 7.21764 5.33061 8.19266 6.53336 8.19266C7.73611 8.19266 8.71114 7.21764 8.71114 6.01488C8.71114 4.81213 7.73611 3.83711 6.53336 3.83711ZM2.90373 6.01488C2.90373 4.01029 4.52877 2.38525 6.53336 2.38525C8.53795 2.38525 10.163 4.01029 10.163 6.01488C10.163 8.01947 8.53795 9.64451 6.53336 9.64451C4.52877 9.64451 2.90373 8.01947 2.90373 6.01488ZM14.3126 8.44773C14.693 8.57451 14.8985 8.98561 14.7717 9.36596L14.7433 9.45125C14.9754 9.61564 15.1822 9.81324 15.357 10.0371L15.483 9.98673C15.8552 9.83784 16.2777 10.0189 16.4266 10.3911C16.5755 10.7634 16.3944 11.1858 16.0222 11.3347L15.9353 11.3695C15.9584 11.517 15.9704 11.6683 15.9704 11.8223C15.9704 11.9298 15.9646 12.0359 15.9532 12.1403L15.9822 12.15C16.3626 12.2768 16.5681 12.6879 16.4413 13.0682C16.3145 13.4486 15.9034 13.6541 15.5231 13.5273L15.4377 13.4989C15.2733 13.731 15.0757 13.9379 14.8518 14.1127L14.9021 14.2386C15.051 14.6108 14.87 15.0333 14.4977 15.1822C14.1255 15.3311 13.703 15.15 13.5541 14.7778L13.5194 14.6909C13.3719 14.714 13.2207 14.726 13.0667 14.726C12.9593 14.726 12.8532 14.7202 12.7488 14.7088L12.7391 14.7378C12.6124 15.1182 12.2013 15.3237 11.8209 15.1969C11.4406 15.0701 11.235 14.659 11.3618 14.2787L11.3902 14.1934C11.1581 14.029 10.9511 13.8313 10.7763 13.6074L10.6504 13.6577C10.2782 13.8066 9.85569 13.6256 9.7068 13.2533C9.5579 12.8811 9.73896 12.4586 10.1112 12.3097L10.1981 12.275C10.175 12.1275 10.163 11.9763 10.163 11.8223C10.163 11.7149 10.1688 11.6088 10.1802 11.5044L10.1512 11.4947C9.7709 11.368 9.56535 10.9569 9.69213 10.5765C9.81891 10.1962 10.23 9.99061 10.6104 10.1174L10.6956 10.1458C10.86 9.91369 11.0576 9.70678 11.2815 9.532L11.2311 9.406C11.0822 9.03376 11.2633 8.61129 11.6355 8.4624C12.0078 8.3135 12.4303 8.49456 12.5791 8.8668L12.6139 8.95368C12.7614 8.93058 12.9127 8.91859 13.0667 8.91859C13.1742 8.91859 13.2803 8.92443 13.3847 8.93581L13.3944 8.90684C13.5212 8.5265 13.9323 8.32095 14.3126 8.44773ZM12.3183 10.5779C12.3676 10.5694 12.4168 10.5557 12.4651 10.5363C12.5314 10.5098 12.5916 10.4747 12.6449 10.4327C12.7784 10.3922 12.92 10.3704 13.0667 10.3704C13.5948 10.3704 14.057 10.6524 14.311 11.0739C14.3196 11.1232 14.3333 11.1724 14.3527 11.2207C14.3792 11.287 14.4143 11.3472 14.4563 11.4005C14.4968 11.534 14.5185 11.6756 14.5185 11.8223C14.5185 12.3503 14.2366 12.8125 13.8151 13.0666C13.7658 13.0751 13.7165 13.0889 13.6682 13.1083C13.6019 13.1348 13.5417 13.17 13.4883 13.212C13.3549 13.2524 13.2133 13.2741 13.0667 13.2741C12.5387 13.2741 12.0764 12.9922 11.8224 12.5707C11.8139 12.5214 11.8001 12.4721 11.7807 12.4238C11.7542 12.3575 11.719 12.2973 11.677 12.2439C11.6366 12.1105 11.6148 11.9689 11.6148 11.8223C11.6148 11.2942 11.8968 10.832 12.3183 10.5779ZM1.78905 12.1595C2.46973 11.4788 3.39294 11.0964 4.35558 11.0964H7.25929C7.6602 11.0964 7.98521 11.4214 7.98521 11.8223C7.98521 12.2232 7.6602 12.5482 7.25929 12.5482H4.35558C3.778 12.5482 3.22407 12.7777 2.81566 13.1861C2.40725 13.5945 2.1778 14.1484 2.1778 14.726V16.1778C2.1778 16.5788 1.8528 16.9038 1.45188 16.9038C1.05096 16.9038 0.725952 16.5788 0.725952 16.1778V14.726C0.725952 13.7634 1.10836 12.8401 1.78905 12.1595Z" fill="#3F3F46"/>
</svg>
