<svg width="21" height="22" viewBox="0 0 21 22" fill="none" xmlns="http://www.w3.org/2000/svg">
<path fill-rule="evenodd" clip-rule="evenodd" d="M10.6572 4.16966C9.24243 4.16966 8.09556 5.31653 8.09556 6.73127C8.09556 8.14601 9.24243 9.29288 10.6572 9.29288C12.0719 9.29288 13.2188 8.14601 13.2188 6.73127C13.2188 5.31653 12.0719 4.16966 10.6572 4.16966ZM6.38782 6.73127C6.38782 4.37337 8.29927 2.46191 10.6572 2.46191C13.0151 2.46191 14.9265 4.37337 14.9265 6.73127C14.9265 9.08917 13.0151 11.0006 10.6572 11.0006C8.29927 11.0006 6.38782 9.08917 6.38782 6.73127ZM5.07667 13.9588C5.87733 13.1582 6.96325 12.7084 8.09556 12.7084H13.2188C14.3511 12.7084 15.437 13.1582 16.2377 13.9588C17.0383 14.7595 17.4881 15.8454 17.4881 16.9777V18.6855C17.4881 19.157 17.1058 19.5393 16.6343 19.5393C16.1627 19.5393 15.7804 19.157 15.7804 18.6855V16.9777C15.7804 16.2983 15.5105 15.6468 15.0301 15.1664C14.5497 14.686 13.8982 14.4161 13.2188 14.4161H8.09556C7.41618 14.4161 6.76462 14.686 6.28422 15.1664C5.80383 15.6468 5.53394 16.2983 5.53394 16.9777V18.6855C5.53394 19.157 5.15165 19.5393 4.68007 19.5393C4.20849 19.5393 3.8262 19.157 3.8262 18.6855V16.9777C3.8262 15.8454 4.27601 14.7595 5.07667 13.9588Z" fill="#09090B"/>
</svg>
